# xmcd CD database file
#
# Track frame offsets:
#	150
#	19660
#	48142
#	73852
#	108287
#	135325
#	189500
#	211317
#
# Disc length: 3433 seconds
#
# Revision: 1
# Processed by: cddbd v1.5.1PL2 Copyright (c) Steve Scherf et al.
# Submitted via: CDex 1.51
#
DISCID=660d6708
DTITLE=本田 竹曠 - IN A SENTIMENTAL MOOD
DYEAR=1998
DGENRE=Jazz
TTITLE0=Mr.P.C
TTITLE1=Misty
TTITLE2=A Nigth in tunsia
TTITLE3=Body and Soul
TTITLE4=Autumn Leaves
TTITLE5=Once I Loved
TTITLE6=In a Sentimental Mood
TTITLE7=Everything Happens to me
EXTD=YEAR: 1998
EXTT0=
EXTT1=
EXTT2=
EXTT3=
EXTT4=
EXTT5=
EXTT6=
EXTT7=
PLAYORDER=
